<mxfile host="app.diagrams.net" agent="Mozilla/5.0 (X11; Linux x86_64; rv:137.0) Gecko/20100101 Firefox/137.0" version="26.2.14">
  <diagram id="C5RBs43oDa-KdzZeNtuy" name="Page-1">
    <mxGraphModel dx="222" dy="354" grid="1" gridSize="10" guides="1" tooltips="1" connect="1" arrows="1" fold="1" page="1" pageScale="1" pageWidth="827" pageHeight="1169" math="0" shadow="0">
      <root>
        <mxCell id="WIyWlLk6GJQsqaUBKTNV-0" />
        <mxCell id="WIyWlLk6GJQsqaUBKTNV-1" parent="WIyWlLk6GJQsqaUBKTNV-0" />
        <mxCell id="qO3jAOuhROKbY-ezE0CX-12" value="DatasetType (Enum)" style="swimlane;fontStyle=1;align=center;verticalAlign=top;childLayout=stackLayout;horizontal=1;startSize=26;horizontalStack=0;resizeParent=1;resizeParentMax=0;resizeLast=0;collapsible=1;marginBottom=0;whiteSpace=wrap;html=1;" parent="WIyWlLk6GJQsqaUBKTNV-1" vertex="1">
          <mxGeometry x="30" y="70" width="290" height="160" as="geometry" />
        </mxCell>
        <mxCell id="qO3jAOuhROKbY-ezE0CX-13" value="&lt;div&gt;+ EnumMembers:&lt;/div&gt;&lt;div&gt;&lt;span style=&quot;white-space: pre;&quot;&gt;&#x9;&lt;/span&gt;- JSON(std::fs::File, offset, count)&lt;/div&gt;&lt;div&gt;&lt;span style=&quot;white-space: pre;&quot;&gt;&#x9;&lt;/span&gt;- JSONL(std::fs::File, offset, count)&lt;/div&gt;&lt;div&gt;&lt;span style=&quot;white-space: pre;&quot;&gt;&#x9;&lt;/span&gt;- PARQUET(std::fs::File, offset, count)&lt;/div&gt;&lt;div&gt;&lt;span style=&quot;white-space: pre;&quot;&gt;&#x9;&lt;/span&gt;- TXT(std::fs::File, offset, count)&lt;/div&gt;&lt;br&gt;&lt;div&gt;&lt;br&gt;&lt;/div&gt;" style="text;strokeColor=none;fillColor=none;align=left;verticalAlign=top;spacingLeft=4;spacingRight=4;overflow=hidden;rotatable=0;points=[[0,0.5],[1,0.5]];portConstraint=eastwest;whiteSpace=wrap;html=1;" parent="qO3jAOuhROKbY-ezE0CX-12" vertex="1">
          <mxGeometry y="26" width="290" height="94" as="geometry" />
        </mxCell>
        <mxCell id="qO3jAOuhROKbY-ezE0CX-25" value="&lt;div&gt;+ iter(&amp;amp;self) -&amp;gt; DocIter&lt;/div&gt;&lt;div&gt;+ pipeline(&amp;amp;self)&lt;/div&gt;" style="text;strokeColor=default;fillColor=none;align=left;verticalAlign=top;spacingLeft=4;spacingRight=4;overflow=hidden;rotatable=0;points=[[0,0.5],[1,0.5]];portConstraint=eastwest;whiteSpace=wrap;html=1;" parent="qO3jAOuhROKbY-ezE0CX-12" vertex="1">
          <mxGeometry y="120" width="290" height="40" as="geometry" />
        </mxCell>
        <mxCell id="qO3jAOuhROKbY-ezE0CX-16" value="Pipeline&amp;lt;I: DocIter&amp;gt;" style="swimlane;fontStyle=1;align=center;verticalAlign=top;childLayout=stackLayout;horizontal=1;startSize=26;horizontalStack=0;resizeParent=1;resizeParentMax=0;resizeLast=0;collapsible=1;marginBottom=0;whiteSpace=wrap;html=1;" parent="WIyWlLk6GJQsqaUBKTNV-1" vertex="1">
          <mxGeometry x="400" y="50" width="360" height="80" as="geometry" />
        </mxCell>
        <mxCell id="qO3jAOuhROKbY-ezE0CX-17" value="&lt;div&gt;+ iter: I &lt;br&gt;&lt;/div&gt;" style="text;strokeColor=none;fillColor=none;align=left;verticalAlign=top;spacingLeft=4;spacingRight=4;overflow=hidden;rotatable=0;points=[[0,0.5],[1,0.5]];portConstraint=eastwest;whiteSpace=wrap;html=1;" parent="qO3jAOuhROKbY-ezE0CX-16" vertex="1">
          <mxGeometry y="26" width="360" height="24" as="geometry" />
        </mxCell>
        <mxCell id="qO3jAOuhROKbY-ezE0CX-18" value="" style="line;strokeWidth=1;fillColor=none;align=left;verticalAlign=middle;spacingTop=-1;spacingLeft=3;spacingRight=3;rotatable=0;labelPosition=right;points=[];portConstraint=eastwest;strokeColor=inherit;" parent="qO3jAOuhROKbY-ezE0CX-16" vertex="1">
          <mxGeometry y="50" width="360" height="8" as="geometry" />
        </mxCell>
        <mxCell id="qO3jAOuhROKbY-ezE0CX-19" value="+ process(&amp;amp;mut self, document): (Stats, Alerts, Error)" style="text;strokeColor=none;fillColor=none;align=left;verticalAlign=top;spacingLeft=4;spacingRight=4;overflow=hidden;rotatable=0;points=[[0,0.5],[1,0.5]];portConstraint=eastwest;whiteSpace=wrap;html=1;" parent="qO3jAOuhROKbY-ezE0CX-16" vertex="1">
          <mxGeometry y="58" width="360" height="22" as="geometry" />
        </mxCell>
        <mxCell id="qO3jAOuhROKbY-ezE0CX-26" value="ParquetChunkIterator: DocIter" style="swimlane;fontStyle=0;childLayout=stackLayout;horizontal=1;startSize=26;fillColor=none;horizontalStack=0;resizeParent=1;resizeParentMax=0;resizeLast=0;collapsible=1;marginBottom=0;whiteSpace=wrap;html=1;" parent="WIyWlLk6GJQsqaUBKTNV-1" vertex="1">
          <mxGeometry x="30" y="290" width="230" height="96" as="geometry" />
        </mxCell>
        <mxCell id="qO3jAOuhROKbY-ezE0CX-27" value="+ ref: parquet::file::SerializedFileReader" style="text;strokeColor=default;fillColor=none;align=left;verticalAlign=top;spacingLeft=4;spacingRight=4;overflow=hidden;rotatable=0;points=[[0,0.5],[1,0.5]];portConstraint=eastwest;whiteSpace=wrap;html=1;" parent="qO3jAOuhROKbY-ezE0CX-26" vertex="1">
          <mxGeometry y="26" width="230" height="44" as="geometry" />
        </mxCell>
        <mxCell id="qO3jAOuhROKbY-ezE0CX-30" value="+ next(&amp;amp;mut self) -&amp;gt; Document" style="text;strokeColor=none;fillColor=none;align=left;verticalAlign=top;spacingLeft=4;spacingRight=4;overflow=hidden;rotatable=0;points=[[0,0.5],[1,0.5]];portConstraint=eastwest;whiteSpace=wrap;html=1;" parent="qO3jAOuhROKbY-ezE0CX-26" vertex="1">
          <mxGeometry y="70" width="230" height="26" as="geometry" />
        </mxCell>
        <mxCell id="qO3jAOuhROKbY-ezE0CX-31" value="&lt;div&gt;JSONLChunkIterator: DocIter&lt;/div&gt;" style="swimlane;fontStyle=0;childLayout=stackLayout;horizontal=1;startSize=26;fillColor=none;horizontalStack=0;resizeParent=1;resizeParentMax=0;resizeLast=0;collapsible=1;marginBottom=0;whiteSpace=wrap;html=1;" parent="WIyWlLk6GJQsqaUBKTNV-1" vertex="1">
          <mxGeometry x="30" y="490" width="235" height="78" as="geometry" />
        </mxCell>
        <mxCell id="qO3jAOuhROKbY-ezE0CX-32" value="+ ref: Mmap" style="text;strokeColor=default;fillColor=none;align=left;verticalAlign=top;spacingLeft=4;spacingRight=4;overflow=hidden;rotatable=0;points=[[0,0.5],[1,0.5]];portConstraint=eastwest;whiteSpace=wrap;html=1;" parent="qO3jAOuhROKbY-ezE0CX-31" vertex="1">
          <mxGeometry y="26" width="235" height="26" as="geometry" />
        </mxCell>
        <mxCell id="qO3jAOuhROKbY-ezE0CX-33" value="+ next(&amp;amp;mut self) -&amp;gt; Document" style="text;strokeColor=none;fillColor=none;align=left;verticalAlign=top;spacingLeft=4;spacingRight=4;overflow=hidden;rotatable=0;points=[[0,0.5],[1,0.5]];portConstraint=eastwest;whiteSpace=wrap;html=1;" parent="qO3jAOuhROKbY-ezE0CX-31" vertex="1">
          <mxGeometry y="52" width="235" height="26" as="geometry" />
        </mxCell>
        <mxCell id="qO3jAOuhROKbY-ezE0CX-34" value="JSONChunkIterator: DocIter" style="swimlane;fontStyle=0;childLayout=stackLayout;horizontal=1;startSize=26;fillColor=none;horizontalStack=0;resizeParent=1;resizeParentMax=0;resizeLast=0;collapsible=1;marginBottom=0;whiteSpace=wrap;html=1;" parent="WIyWlLk6GJQsqaUBKTNV-1" vertex="1">
          <mxGeometry x="30" y="400" width="235" height="78" as="geometry" />
        </mxCell>
        <mxCell id="qO3jAOuhROKbY-ezE0CX-35" value="+ ref: Mmap" style="text;strokeColor=default;fillColor=none;align=left;verticalAlign=top;spacingLeft=4;spacingRight=4;overflow=hidden;rotatable=0;points=[[0,0.5],[1,0.5]];portConstraint=eastwest;whiteSpace=wrap;html=1;" parent="qO3jAOuhROKbY-ezE0CX-34" vertex="1">
          <mxGeometry y="26" width="235" height="26" as="geometry" />
        </mxCell>
        <mxCell id="qO3jAOuhROKbY-ezE0CX-36" value="+ next(&amp;amp;mut self) -&amp;gt; Document" style="text;strokeColor=none;fillColor=none;align=left;verticalAlign=top;spacingLeft=4;spacingRight=4;overflow=hidden;rotatable=0;points=[[0,0.5],[1,0.5]];portConstraint=eastwest;whiteSpace=wrap;html=1;" parent="qO3jAOuhROKbY-ezE0CX-34" vertex="1">
          <mxGeometry y="52" width="235" height="26" as="geometry" />
        </mxCell>
        <mxCell id="qO3jAOuhROKbY-ezE0CX-37" value="TXTChunkIterator: DocIter" style="swimlane;fontStyle=0;childLayout=stackLayout;horizontal=1;startSize=26;fillColor=none;horizontalStack=0;resizeParent=1;resizeParentMax=0;resizeLast=0;collapsible=1;marginBottom=0;whiteSpace=wrap;html=1;" parent="WIyWlLk6GJQsqaUBKTNV-1" vertex="1">
          <mxGeometry x="30" y="580" width="235" height="78" as="geometry" />
        </mxCell>
        <mxCell id="qO3jAOuhROKbY-ezE0CX-38" value="+ ref: Mmap" style="text;strokeColor=default;fillColor=none;align=left;verticalAlign=top;spacingLeft=4;spacingRight=4;overflow=hidden;rotatable=0;points=[[0,0.5],[1,0.5]];portConstraint=eastwest;whiteSpace=wrap;html=1;" parent="qO3jAOuhROKbY-ezE0CX-37" vertex="1">
          <mxGeometry y="26" width="235" height="26" as="geometry" />
        </mxCell>
        <mxCell id="qO3jAOuhROKbY-ezE0CX-39" value="+ next(&amp;amp;mut self) -&amp;gt; Document" style="text;strokeColor=none;fillColor=none;align=left;verticalAlign=top;spacingLeft=4;spacingRight=4;overflow=hidden;rotatable=0;points=[[0,0.5],[1,0.5]];portConstraint=eastwest;whiteSpace=wrap;html=1;" parent="qO3jAOuhROKbY-ezE0CX-37" vertex="1">
          <mxGeometry y="52" width="235" height="26" as="geometry" />
        </mxCell>
        <mxCell id="qO3jAOuhROKbY-ezE0CX-41" value="trait DocIter: Iterator&amp;lt;Item=Document&amp;gt;" style="html=1;whiteSpace=wrap;" parent="WIyWlLk6GJQsqaUBKTNV-1" vertex="1">
          <mxGeometry x="254" width="276" height="30" as="geometry" />
        </mxCell>
        <mxCell id="qO3jAOuhROKbY-ezE0CX-42" value="Pipeline&amp;lt;I: DocIter&amp;gt;" style="swimlane;fontStyle=1;align=center;verticalAlign=top;childLayout=stackLayout;horizontal=1;startSize=26;horizontalStack=0;resizeParent=1;resizeParentMax=0;resizeLast=0;collapsible=1;marginBottom=0;whiteSpace=wrap;html=1;" parent="WIyWlLk6GJQsqaUBKTNV-1" vertex="1">
          <mxGeometry x="400" y="239" width="360" height="100" as="geometry" />
        </mxCell>
        <mxCell id="qO3jAOuhROKbY-ezE0CX-43" value="&lt;div&gt;+ iter: I &lt;br&gt;&lt;/div&gt;" style="text;strokeColor=none;fillColor=none;align=left;verticalAlign=top;spacingLeft=4;spacingRight=4;overflow=hidden;rotatable=0;points=[[0,0.5],[1,0.5]];portConstraint=eastwest;whiteSpace=wrap;html=1;" parent="qO3jAOuhROKbY-ezE0CX-42" vertex="1">
          <mxGeometry y="26" width="360" height="24" as="geometry" />
        </mxCell>
        <mxCell id="qO3jAOuhROKbY-ezE0CX-44" value="" style="line;strokeWidth=1;fillColor=none;align=left;verticalAlign=middle;spacingTop=-1;spacingLeft=3;spacingRight=3;rotatable=0;labelPosition=right;points=[];portConstraint=eastwest;strokeColor=inherit;" parent="qO3jAOuhROKbY-ezE0CX-42" vertex="1">
          <mxGeometry y="50" width="360" height="8" as="geometry" />
        </mxCell>
        <mxCell id="qO3jAOuhROKbY-ezE0CX-45" value="&lt;div&gt;+ process(&amp;amp;mut self, document): (Stats, Alerts, Error)&lt;/div&gt;&lt;div&gt;+ next_doc(&amp;amp;mut self) -&amp;gt; Document&lt;/div&gt;" style="text;strokeColor=none;fillColor=none;align=left;verticalAlign=top;spacingLeft=4;spacingRight=4;overflow=hidden;rotatable=0;points=[[0,0.5],[1,0.5]];portConstraint=eastwest;whiteSpace=wrap;html=1;" parent="qO3jAOuhROKbY-ezE0CX-42" vertex="1">
          <mxGeometry y="58" width="360" height="42" as="geometry" />
        </mxCell>
        <mxCell id="qO3jAOuhROKbY-ezE0CX-47" value="StatsCollector" style="swimlane;fontStyle=1;align=center;verticalAlign=top;childLayout=stackLayout;horizontal=1;startSize=26;horizontalStack=0;resizeParent=1;resizeParentMax=0;resizeLast=0;collapsible=1;marginBottom=0;whiteSpace=wrap;html=1;" parent="WIyWlLk6GJQsqaUBKTNV-1" vertex="1">
          <mxGeometry x="940" y="140" width="160" height="86" as="geometry" />
        </mxCell>
        <mxCell id="qO3jAOuhROKbY-ezE0CX-48" value="+ field: type" style="text;strokeColor=none;fillColor=none;align=left;verticalAlign=top;spacingLeft=4;spacingRight=4;overflow=hidden;rotatable=0;points=[[0,0.5],[1,0.5]];portConstraint=eastwest;whiteSpace=wrap;html=1;" parent="qO3jAOuhROKbY-ezE0CX-47" vertex="1">
          <mxGeometry y="26" width="160" height="26" as="geometry" />
        </mxCell>
        <mxCell id="qO3jAOuhROKbY-ezE0CX-49" value="" style="line;strokeWidth=1;fillColor=none;align=left;verticalAlign=middle;spacingTop=-1;spacingLeft=3;spacingRight=3;rotatable=0;labelPosition=right;points=[];portConstraint=eastwest;strokeColor=inherit;" parent="qO3jAOuhROKbY-ezE0CX-47" vertex="1">
          <mxGeometry y="52" width="160" height="8" as="geometry" />
        </mxCell>
        <mxCell id="qO3jAOuhROKbY-ezE0CX-50" value="+ method(type): type" style="text;strokeColor=none;fillColor=none;align=left;verticalAlign=top;spacingLeft=4;spacingRight=4;overflow=hidden;rotatable=0;points=[[0,0.5],[1,0.5]];portConstraint=eastwest;whiteSpace=wrap;html=1;" parent="qO3jAOuhROKbY-ezE0CX-47" vertex="1">
          <mxGeometry y="60" width="160" height="26" as="geometry" />
        </mxCell>
        <mxCell id="qO3jAOuhROKbY-ezE0CX-52" value="..." style="text;html=1;align=center;verticalAlign=middle;whiteSpace=wrap;rounded=0;rotation=90;" parent="WIyWlLk6GJQsqaUBKTNV-1" vertex="1">
          <mxGeometry x="413" y="168" width="60" height="30" as="geometry" />
        </mxCell>
        <mxCell id="qO3jAOuhROKbY-ezE0CX-53" value="" style="html=1;verticalAlign=bottom;labelBackgroundColor=none;endArrow=open;endFill=0;dashed=1;rounded=0;entryX=0;entryY=0.5;entryDx=0;entryDy=0;exitX=1;exitY=0.5;exitDx=0;exitDy=0;" parent="WIyWlLk6GJQsqaUBKTNV-1" source="qO3jAOuhROKbY-ezE0CX-13" target="qO3jAOuhROKbY-ezE0CX-17" edge="1">
          <mxGeometry width="160" relative="1" as="geometry">
            <mxPoint x="300" y="150" as="sourcePoint" />
            <mxPoint x="460" y="150" as="targetPoint" />
          </mxGeometry>
        </mxCell>
        <mxCell id="qO3jAOuhROKbY-ezE0CX-54" value="" style="html=1;verticalAlign=bottom;labelBackgroundColor=none;endArrow=open;endFill=0;dashed=1;rounded=0;entryX=0;entryY=0.5;entryDx=0;entryDy=0;exitX=1;exitY=0.5;exitDx=0;exitDy=0;" parent="WIyWlLk6GJQsqaUBKTNV-1" source="qO3jAOuhROKbY-ezE0CX-13" target="qO3jAOuhROKbY-ezE0CX-43" edge="1">
          <mxGeometry width="160" relative="1" as="geometry">
            <mxPoint x="310" y="160" as="sourcePoint" />
            <mxPoint x="410" y="98" as="targetPoint" />
          </mxGeometry>
        </mxCell>
        <mxCell id="qO3jAOuhROKbY-ezE0CX-55" value="" style="html=1;verticalAlign=bottom;labelBackgroundColor=none;endArrow=open;endFill=0;dashed=1;rounded=0;entryX=0.5;entryY=1;entryDx=0;entryDy=0;exitX=1;exitY=0.5;exitDx=0;exitDy=0;" parent="WIyWlLk6GJQsqaUBKTNV-1" source="qO3jAOuhROKbY-ezE0CX-13" target="qO3jAOuhROKbY-ezE0CX-52" edge="1">
          <mxGeometry width="160" relative="1" as="geometry">
            <mxPoint x="310" y="148" as="sourcePoint" />
            <mxPoint x="410" y="98" as="targetPoint" />
          </mxGeometry>
        </mxCell>
        <mxCell id="qO3jAOuhROKbY-ezE0CX-56" value="1" style="endArrow=open;html=1;endSize=12;startArrow=diamondThin;startSize=14;startFill=0;edgeStyle=orthogonalEdgeStyle;align=left;verticalAlign=bottom;rounded=0;exitX=1;exitY=0.5;exitDx=0;exitDy=0;" parent="WIyWlLk6GJQsqaUBKTNV-1" source="qO3jAOuhROKbY-ezE0CX-17" edge="1">
          <mxGeometry x="-1" y="3" relative="1" as="geometry">
            <mxPoint x="780" y="182.66" as="sourcePoint" />
            <mxPoint x="940" y="180" as="targetPoint" />
            <Array as="points">
              <mxPoint x="850" y="88" />
              <mxPoint x="850" y="180" />
              <mxPoint x="920" y="180" />
            </Array>
          </mxGeometry>
        </mxCell>
        <mxCell id="qO3jAOuhROKbY-ezE0CX-57" value="1" style="endArrow=open;html=1;endSize=12;startArrow=diamondThin;startSize=14;startFill=0;edgeStyle=orthogonalEdgeStyle;align=left;verticalAlign=bottom;rounded=0;exitX=1;exitY=0.5;exitDx=0;exitDy=0;entryX=0;entryY=0.5;entryDx=0;entryDy=0;" parent="WIyWlLk6GJQsqaUBKTNV-1" source="qO3jAOuhROKbY-ezE0CX-43" target="qO3jAOuhROKbY-ezE0CX-48" edge="1">
          <mxGeometry x="-1" y="3" relative="1" as="geometry">
            <mxPoint x="770" y="98" as="sourcePoint" />
            <mxPoint x="950" y="192.66" as="targetPoint" />
          </mxGeometry>
        </mxCell>
        <mxCell id="jUZZ57gkgZ1GBOcDASUF-0" value="Document&lt;span style=&quot;white-space: pre;&quot;&gt;&#x9;&lt;/span&gt;" style="swimlane;fontStyle=1;align=center;verticalAlign=top;childLayout=stackLayout;horizontal=1;startSize=26;horizontalStack=0;resizeParent=1;resizeParentMax=0;resizeLast=0;collapsible=1;marginBottom=0;whiteSpace=wrap;html=1;" vertex="1" parent="WIyWlLk6GJQsqaUBKTNV-1">
          <mxGeometry x="380" y="420" width="270" height="250" as="geometry">
            <mxRectangle x="380" y="420" width="120" height="30" as="alternateBounds" />
          </mxGeometry>
        </mxCell>
        <mxCell id="jUZZ57gkgZ1GBOcDASUF-1" value="&lt;div&gt;+ texts: flatarray&amp;lt;u8&amp;gt;&lt;/div&gt;&lt;div&gt;+ texts_keys: flatarray&amp;lt;&amp;amp;&#39;static str&amp;gt;&lt;/div&gt;&lt;div&gt;+ ints: flatarray&amp;lt;i64&amp;gt;&lt;/div&gt;&lt;div&gt;+ text_ints: flatarray&amp;lt;&amp;amp;&#39;static str&amp;gt;&lt;/div&gt;&lt;div&gt;+ floats: flatarray&amp;lt;f64&amp;gt;&lt;/div&gt;&lt;div&gt;+ text_floats: flatarray&amp;lt;&amp;amp;&#39;static str&amp;gt;&lt;/div&gt;&lt;div&gt;+ bools: flatarray&amp;lt;bool&amp;gt;&lt;/div&gt;&lt;div&gt;+ text_bools: flatarray&amp;lt;&amp;amp;&#39;static str&amp;gt;&lt;/div&gt;" style="text;strokeColor=none;fillColor=none;align=left;verticalAlign=top;spacingLeft=4;spacingRight=4;overflow=hidden;rotatable=0;points=[[0,0.5],[1,0.5]];portConstraint=eastwest;whiteSpace=wrap;html=1;" vertex="1" parent="jUZZ57gkgZ1GBOcDASUF-0">
          <mxGeometry y="26" width="270" height="144" as="geometry" />
        </mxCell>
        <mxCell id="jUZZ57gkgZ1GBOcDASUF-2" value="" style="line;strokeWidth=1;fillColor=none;align=left;verticalAlign=middle;spacingTop=-1;spacingLeft=3;spacingRight=3;rotatable=0;labelPosition=right;points=[];portConstraint=eastwest;strokeColor=inherit;" vertex="1" parent="jUZZ57gkgZ1GBOcDASUF-0">
          <mxGeometry y="170" width="270" height="20" as="geometry" />
        </mxCell>
        <mxCell id="jUZZ57gkgZ1GBOcDASUF-3" value="+ method(type): type" style="text;strokeColor=none;fillColor=none;align=left;verticalAlign=top;spacingLeft=4;spacingRight=4;overflow=hidden;rotatable=0;points=[[0,0.5],[1,0.5]];portConstraint=eastwest;whiteSpace=wrap;html=1;" vertex="1" parent="jUZZ57gkgZ1GBOcDASUF-0">
          <mxGeometry y="190" width="270" height="60" as="geometry" />
        </mxCell>
        <UserObject label="Note: see `with_range`: " link="https://docs.rs/parquet/latest/parquet/file/serialized_reader/struct.ReadOptionsBuilder.html" id="jUZZ57gkgZ1GBOcDASUF-4">
          <mxCell style="text;html=1;align=center;verticalAlign=middle;resizable=0;points=[];autosize=1;strokeColor=none;fillColor=none;rotation=0;" vertex="1" parent="WIyWlLk6GJQsqaUBKTNV-1">
            <mxGeometry x="25" y="260" width="210" height="30" as="geometry" />
          </mxCell>
        </UserObject>
      </root>
    </mxGraphModel>
  </diagram>
</mxfile>
